HIERARCHY
ROOT Hips
{
	OFFSET 0.000000 0.000000 0.000000
	CHANNELS 6 Xposition Yposition Zposition Zrotation Yrotation Xrotation 
	JOINT LowerBack
	{
		OFFSET 0.000000 0.000000 0.000000
		CHANNELS 3 Zrotation Yrotation Xrotation
		JOINT Spine
		{
			OFFSET 0.028270 2.035590 -0.193380
			CHANNELS 3 Zrotation Yrotation Xrotation
			JOINT Spine1
			{
				OFFSET 0.056720 2.048850 -0.042750
				CHANNELS 3 Zrotation Yrotation Xrotation
				JOINT Neck
				{
					OFFSET 0.000000 0.000000 0.000000
					CHANNELS 3 Zrotation Yrotation Xrotation
					JOINT Neck1
					{
						OFFSET -0.054170 1.746240 0.172020
						CHANNELS 3 Zrotation Yrotation Xrotation
						JOINT Head
						{
							OFFSET 0.104070 1.761360 -0.123970
							CHANNELS 3 Zrotation Yrotation Xrotation
							End Site
							{
								OFFSET 0.000000 0.000000 0.000000
							}
						}
					}
				}
				JOINT LeftShoulder
				{
					OFFSET 0.000000 0.000000 0.000000
					CHANNELS 3 Zrotation Yrotation Xrotation
					JOINT LeftArm
					{
						OFFSET 3.362410 1.200890 -0.311210
						CHANNELS 3 Zrotation Yrotation Xrotation
						JOINT LeftForeArm
						{
							OFFSET 4.983000 -0.000000 -0.000000
							CHANNELS 3 Zrotation Yrotation Xrotation
							JOINT LeftHand
							{
								OFFSET 3.483560 -0.000000 -0.000000
								CHANNELS 3 Zrotation Yrotation Xrotation
								JOINT LeftFingerBase
								{
									OFFSET 0.000000 0.000000 0.000000
									CHANNELS 3 Zrotation Yrotation Xrotation
									JOINT LeftHandIndex1
									{
										OFFSET 0.715260 -0.000000 -0.000000
										CHANNELS 3 Zrotation Yrotation Xrotation
										End Site
										{
											OFFSET 0.000000 0.000000 0.000000
										}
									}
								}
								JOINT LThumb
								{
									OFFSET 0.000000 0.000000 0.000000
									CHANNELS 3 Zrotation Yrotation Xrotation
									End Site
									{
										OFFSET 0.000000 0.000000 0.000000
									}
								}
							}
						}
					}
				}
				JOINT RightShoulder
				{
					OFFSET 0.000000 0.000000 0.000000
					CHANNELS 3 Zrotation Yrotation Xrotation
					JOINT RightArm
					{
						OFFSET -3.136600 1.374050 -0.404650
						CHANNELS 3 Zrotation Yrotation Xrotation
						JOINT RightForeArm
						{
							OFFSET -5.241900 -0.000000 -0.000000
							CHANNELS 3 Zrotation Yrotation Xrotation
							JOINT RightHand
							{
								OFFSET -3.444170 -0.000000 -0.000000
								CHANNELS 3 Zrotation Yrotation Xrotation
								JOINT RightFingerBase
								{
									OFFSET 0.000000 0.000000 0.000000
									CHANNELS 3 Zrotation Yrotation Xrotation
									JOINT RightHandIndex1
									{
										OFFSET -0.622530 -0.000000 -0.000000
										CHANNELS 3 Zrotation Yrotation Xrotation
										End Site
										{
											OFFSET 0.000000 0.000000 0.000000
										}
									}
								}
								JOINT RThumb
								{
									OFFSET 0.000000 0.000000 0.000000
									CHANNELS 3 Zrotation Yrotation Xrotation
									End Site
									{
										OFFSET 0.000000 0.000000 0.000000
									}
								}
							}
						}
					}
				}
			}
		}
	}
}
}
MOTION
Frames: 17
Frame Time: 0.008333
1.007972 17.155833 1.807237 17.065739 -35.543923 -4.957208 -4.332107 0.134618 -2.578831 -0.735676 0.553617 -4.417944 -1.146479 0.499436 -5.441822 -2.037052 4.696514 4.426291 -2.323392 -0.329613 3.300346 0.000000 0.000000 0.000000 4.092183 -1.322119 -9.827103 -108.333568 -56.714065 53.337828 179.041487 -77.616701 179.798247 11.410769 -10.068586 -1.132905 -0.095305 1.141426 -0.000000 0.000000 0.000000 0.000000 0.000000 0.000000 0.000000 -1.347341 9.117912 4.366645 26.113318 8.004275 -29.585692 -0.381807 47.233173 -0.186411 -23.845423 -2.744310 0.496169 0.322659 -0.425031 -0.000000 0.000000 0.000000 0.000000 0.000000 0.000000 0.000000 
1.011387 17.147965 1.796841 17.292136 -35.242091 -5.383109 -3.982691 0.435344 -2.611079 -0.612232 0.832593 -4.294579 -0.810112 0.787931 -4.979993 -3.601437 5.315672 4.199292 -2.218235 -0.319604 3.231459 0.000000 0.000000 0.000000 3.029482 -0.473658 -9.832979 -106.939136 -56.820127 52.283548 179.039986 -77.408427 179.802806 11.437863 -9.787899 -1.104299 -0.097882 1.111297 -0.000000 0.000000 0.000000 0.000000 0.000000 0.000000 0.000000 -2.892095 9.732459 4.687811 21.867284 11.736760 -32.932429 -0.526335 36.054920 -0.175189 -22.560186 -3.000893 0.524232 0.347785 -0.410326 -0.000000 0.000000 0.000000 0.000000 0.000000 0.000000 0.000000 
1.014535 17.142227 1.786386 17.584316 -35.118133 -5.761391 -3.546713 0.747389 -2.624428 -0.472017 1.115465 -4.181597 -0.490825 1.077394 -4.588500 -5.268802 5.981141 3.885425 -2.094349 -0.307270 3.140068 0.000000 0.000000 0.000000 1.897308 0.430893 -9.837328 -105.723329 -56.898749 51.287306 179.023229 -77.153246 179.806858 11.462550 -9.541424 -1.078690 -0.097638 1.082108 -0.000000 0.000000 0.000000 0.000000 0.000000 0.000000 0.000000 -4.669764 10.414709 5.001201 17.727569 15.352768 -38.219581 -0.716243 24.746173 -0.157886 -21.037592 -2.500739 0.397604 0.374862 -0.394042 0.000000 0.000000 0.000000 0.000000 0.000000 0.000000 0.000000 
1.015993 17.138922 1.775987 17.924082 -35.117473 -6.071467 -3.064310 1.049806 -2.626940 -0.310982 1.386468 -4.094512 -0.135864 1.352543 -4.303947 -6.987049 6.845432 3.538826 -1.941092 -0.292885 3.042065 0.000000 0.000000 0.000000 0.669778 1.369564 -9.815008 -104.670684 -56.940579 50.359013 178.991220 -76.850471 179.810160 11.489481 -9.340051 -1.057764 -0.094687 1.055178 -0.000000 0.000000 0.000000 0.000000 0.000000 0.000000 0.000000 -6.625028 11.293070 5.267868 13.439245 18.448196 -46.696318 -1.023211 13.869112 -0.134723 -19.532045 -0.842162 0.080018 0.393027 -0.384008 0.000000 0.000000 0.000000 0.000000 0.000000 0.000000 0.000000 
1.014381 17.138052 1.766032 18.266343 -35.184424 -6.296128 -2.627145 1.325087 -2.648650 -0.134363 1.637851 -4.052218 0.315097 1.605807 -4.155464 -8.594424 8.179235 3.256960 -1.747861 -0.277354 2.964798 0.000000 0.000000 0.000000 -0.600384 2.246425 -9.738548 -103.811675 -56.899558 49.517694 178.948852 -76.545330 179.812487 11.513227 -9.197710 -1.042793 -0.089419 1.032989 -0.000000 0.000000 0.000000 0.000000 0.000000 0.000000 0.000000 -8.597628 12.637274 5.476279 8.853519 19.969719 -57.937923 -1.459321 4.616135 -0.113002 -18.776015 1.414597 -0.303287 0.403227 -0.379736 0.000000 0.000000 0.000000 0.000000 0.000000 0.000000 0.000000 
1.008959 17.138678 1.756574 18.560324 -35.245493 -6.436216 -2.353067 1.580363 -2.704254 0.016067 1.884051 -4.059550 0.787443 1.852785 -4.154442 -9.799343 9.931660 3.119616 -1.535607 -0.263064 2.930058 0.000000 0.000000 0.000000 -1.665677 2.897637 -9.629570 -103.312342 -56.693191 48.868049 178.906283 -76.328594 179.813844 11.506109 -9.147237 -1.035046 -0.082365 1.018918 -0.000000 0.000000 0.000000 0.000000 0.000000 0.000000 0.000000 -10.303333 14.430641 5.604200 4.880890 19.164824 -65.442993 -1.726471 -1.146358 -0.102567 -19.430651 1.544784 -0.330515 0.438568 -0.341543 0.000000 0.000000 0.000000 0.000000 0.000000 0.000000 0.000000 
1.000406 17.139785 1.746619 18.802287 -35.239731 -6.511636 -2.235385 1.820613 -2.757326 0.119801 2.125928 -4.083649 1.186316 2.095230 -4.228504 -10.664198 11.367217 3.023088 -1.324772 -0.249868 2.909910 0.000000 0.000000 0.000000 -2.441595 3.325867 -9.561763 -103.224517 -56.361089 48.468600 178.860926 -76.186024 179.814557 11.459424 -9.199226 -1.034761 -0.073344 1.011364 -0.000000 0.000000 0.000000 0.000000 0.000000 0.000000 0.000000 -11.827919 15.951201 5.629476 2.065522 17.689597 -67.680767 -1.763327 -4.036448 -0.099386 -20.594269 -0.185714 -0.017203 0.494553 -0.275753 0.000000 0.000000 0.000000 0.000000 0.000000 0.000000 0.000000 
0.989212 17.141187 1.735823 18.993095 -35.133485 -6.532569 -2.229616 2.046723 -2.791410 0.186008 2.359616 -4.104709 1.503036 2.327049 -4.331860 -11.355125 12.086952 2.908487 -1.080224 -0.235074 2.889170 0.000000 0.000000 0.000000 -2.999010 3.556055 -9.543509 -103.451308 -55.979751 48.280000 178.812531 -76.070587 179.814807 11.387130 -9.328704 -1.040154 -0.063059 1.008107 -0.000000 0.000000 0.000000 0.000000 0.000000 0.000000 0.000000 -13.592658 16.877842 5.517733 1.335925 16.245130 -68.646974 -1.867030 -2.967273 -0.107344 -21.697714 -2.920312 0.530514 0.542773 -0.213786 0.000000 0.000000 0.000000 0.000000 0.000000 0.000000 0.000000 
0.975691 17.142888 1.724410 19.134814 -34.931779 -6.505934 -2.293250 2.227921 -2.806877 0.245303 2.554611 -4.101738 1.843039 2.517102 -4.364021 -12.094962 12.075200 2.682440 -0.818870 -0.217968 2.840349 0.000000 0.000000 0.000000 -3.491791 3.701431 -9.610101 -103.887591 -55.607294 48.206939 178.747143 -75.905324 179.814827 11.302391 -9.509864 -1.049377 -0.050512 1.005029 -0.000000 0.000000 0.000000 0.000000 0.000000 0.000000 0.000000 -15.524751 17.080527 5.434316 0.230411 15.854322 -71.222942 -2.059094 -2.773409 -0.111978 -22.769144 -3.333431 0.646131 0.589611 -0.199285 0.000000 0.000000 0.000000 0.000000 0.000000 0.000000 0.000000 
0.960506 17.145147 1.712753 19.224041 -34.647226 -6.435014 -2.385930 2.357367 -2.805071 0.308442 2.701110 -4.069462 2.217398 2.654429 -4.299344 -12.944898 11.304464 2.343563 -0.535836 -0.198006 2.761790 0.000000 0.000000 0.000000 -3.986487 3.800897 -9.747566 -104.422115 -55.296451 48.191356 178.668457 -75.661145 179.814705 11.221557 -9.706861 -1.060027 -0.037122 1.000997 -0.000000 0.000000 0.000000 0.000000 0.000000 0.000000 0.000000 -17.708899 16.556503 5.390155 -1.258994 16.507879 -76.626661 -2.405510 -3.388108 -0.112335 -23.723819 -0.932507 0.145953 0.630598 -0.252290 0.000000 0.000000 0.000000 0.000000 0.000000 0.000000 0.000000 
0.944712 17.148257 1.701084 19.253953 -34.297140 -6.325516 -2.480161 2.448380 -2.785132 0.357968 2.806540 -4.018765 2.518931 2.746484 -4.186486 -13.749698 9.734905 1.982312 -0.247026 -0.177293 2.676560 0.000000 0.000000 0.000000 -4.417455 3.824355 -9.908150 -104.971484 -55.076206 48.221726 178.594938 -75.365826 179.814380 11.158576 -9.885799 -1.070555 -0.025987 0.998060 -0.000000 0.000000 0.000000 0.000000 0.000000 0.000000 0.000000 -20.057195 15.338175 5.266350 -1.794017 17.891385 -83.105038 -2.851324 -1.934269 -0.119637 -24.117557 2.183005 -0.555948 0.650891 -0.352613 0.000000 0.000000 0.000000 0.000000 0.000000 0.000000 0.000000 
0.929297 17.152122 1.689783 19.217628 -33.911505 -6.185813 -2.577176 2.507671 -2.752787 0.363392 2.874706 -3.967516 2.618138 2.801790 -4.080127 -14.243803 7.519102 1.693825 -0.032437 -0.161811 2.608243 0.000000 0.000000 0.000000 -4.634381 3.736068 -10.065880 -105.511590 -54.921367 48.289890 178.542245 -75.074275 179.813845 11.111242 -10.034004 -1.080128 -0.019125 0.998833 -0.000000 0.000000 0.000000 0.000000 0.000000 0.000000 0.000000 -21.944354 13.522420 5.014519 -1.800116 20.087638 -87.969878 -3.232371 1.329984 -0.133588 -23.573041 5.041057 -1.182504 0.643695 -0.476311 -0.000000 0.000000 0.000000 0.000000 0.000000 0.000000 0.000000 
0.914616 17.156461 1.679643 19.103568 -33.527476 -6.021478 -2.715934 2.541549 -2.732032 0.305630 2.914929 -3.946569 2.461196 2.835638 -4.072377 -14.188920 5.333221 1.595024 0.067054 -0.155933 2.589022 0.000000 0.000000 0.000000 -4.494308 3.463112 -10.176477 -106.032028 -54.737047 48.338208 178.518816 -74.851470 179.813002 11.067080 -10.155892 -1.088318 -0.016694 1.005706 -0.000000 0.000000 0.000000 0.000000 0.000000 0.000000 0.000000 -22.909257 11.695502 4.604764 -1.509414 22.269570 -87.062579 -3.377596 6.001684 -0.153966 -22.767999 5.841525 -1.326646 0.635391 -0.566417 -0.000000 0.000000 0.000000 0.000000 0.000000 0.000000 0.000000 
0.900843 17.161973 1.671260 18.910471 -33.204879 -5.830624 -2.892675 2.541036 -2.757415 0.211765 2.922077 -3.973697 2.156107 2.843257 -4.199835 -13.647655 3.805378 1.725382 0.089359 -0.158252 2.631337 0.000000 0.000000 0.000000 -4.086309 3.026409 -10.187458 -106.424910 -54.494095 48.249828 178.520794 -74.686054 179.811655 11.039219 -10.235345 -1.094609 -0.018176 1.018288 -0.000000 0.000000 0.000000 0.000000 0.000000 0.000000 0.000000 -23.130957 10.430336 4.045185 -0.752192 23.474725 -81.342533 -3.347328 12.148849 -0.181777 -22.392333 4.667129 -1.074750 0.631955 -0.611707 -0.000000 0.000000 0.000000 0.000000 0.000000 0.000000 0.000000 
0.888876 17.169518 1.664293 18.656729 -33.008369 -5.619198 -3.057874 2.490962 -2.837412 0.124809 2.881325 -4.039841 1.854641 2.806133 -4.410709 -12.871617 2.987343 2.018235 0.074386 -0.165352 2.717375 0.000000 0.000000 0.000000 -3.621661 2.538947 -10.087380 -106.572529 -54.249357 47.937375 178.537173 -74.521231 179.809634 11.058454 -10.252858 -1.100021 -0.022994 1.033875 -0.000000 0.000000 0.000000 0.000000 0.000000 0.000000 0.000000 -22.920503 9.752183 3.415487 -0.012174 23.792328 -75.359959 -3.236464 19.140659 -0.208662 -22.060870 3.418824 -0.815114 0.603403 -0.649100 -0.000000 0.000000 0.000000 0.000000 0.000000 0.000000 0.000000 
0.879542 17.179002 1.657862 18.370678 -32.974394 -5.399959 -3.173647 2.394055 -2.949318 0.061791 2.792940 -4.126768 1.607643 2.722194 -4.651339 -12.037658 2.599829 2.389481 0.031543 -0.175199 2.823870 0.000000 0.000000 0.000000 -3.200526 2.092832 -9.902904 -106.468010 -54.053127 47.406428 178.559006 -74.321131 179.806867 11.137057 -10.213215 -1.106086 -0.030263 1.050266 -0.000000 0.000000 0.000000 0.000000 0.000000 0.000000 0.000000 -22.427561 9.381649 2.768036 0.369191 23.914372 -71.240443 -3.067580 26.373594 -0.225861 -21.376095 3.149371 -0.745259 0.541236 -0.698405 -0.000000 0.000000 0.000000 0.000000 0.000000 0.000000 0.000000 
0.873307 17.189898 1.651252 18.073720 -33.117354 -5.182098 -3.228737 2.264077 -3.068734 0.024193 2.668718 -4.221326 1.415096 2.602218 -4.896920 -11.231879 2.445316 2.785593 -0.032450 -0.186384 2.936046 0.000000 0.000000 0.000000 -2.838328 1.729345 -9.662594 -106.162466 -53.921188 46.699382 178.580442 -74.084039 179.803368 11.269886 -10.137417 -1.113930 -0.038795 1.066239 -0.000000 0.000000 0.000000 0.000000 0.000000 0.000000 0.000000 -21.758578 9.138973 2.120255 0.486890 24.220040 -68.809991 -2.834665 33.672712 -0.232200 -20.375496 3.697901 -0.818279 0.460368 -0.749931 -0.000000 0.000000 0.000000 0.000000 0.000000 0.000000 0.000000 
